<?xml version="1.0" standalone="no"?>
<svg xmlns:xlink="http://www.w3.org/1999/xlink" id="wave" style="transform:rotate(180deg); transition: 0.3s" viewBox="0 0 1440 190" version="1.1" xmlns="http://www.w3.org/2000/svg"><defs><linearGradient id="sw-gradient-0" x1="0" x2="0" y1="1" y2="0"><stop stop-color="rgba(243, 106, 62, 1)" offset="0%"/><stop stop-color="rgba(255, 179, 11, 1)" offset="100%"/></linearGradient></defs><path style="transform:translate(0, 0px); opacity:1" fill="url(#sw-gradient-0)" d="M0,152L34.3,145.7C68.6,139,137,127,206,104.5C274.3,82,343,51,411,38C480,25,549,32,617,41.2C685.7,51,754,63,823,76C891.4,89,960,101,1029,88.7C1097.1,76,1166,38,1234,41.2C1302.9,44,1371,89,1440,107.7C1508.6,127,1577,120,1646,107.7C1714.3,95,1783,76,1851,85.5C1920,95,1989,133,2057,139.3C2125.7,146,2194,120,2263,98.2C2331.4,76,2400,57,2469,53.8C2537.1,51,2606,63,2674,82.3C2742.9,101,2811,127,2880,117.2C2948.6,108,3017,63,3086,50.7C3154.3,38,3223,57,3291,69.7C3360,82,3429,89,3497,82.3C3565.7,76,3634,57,3703,57C3771.4,57,3840,76,3909,98.2C3977.1,120,4046,146,4114,133C4182.9,120,4251,70,4320,66.5C4388.6,63,4457,108,4526,114C4594.3,120,4663,89,4731,66.5C4800,44,4869,32,4903,25.3L4937.1,19L4937.1,190L4902.9,190C4868.6,190,4800,190,4731,190C4662.9,190,4594,190,4526,190C4457.1,190,4389,190,4320,190C4251.4,190,4183,190,4114,190C4045.7,190,3977,190,3909,190C3840,190,3771,190,3703,190C3634.3,190,3566,190,3497,190C3428.6,190,3360,190,3291,190C3222.9,190,3154,190,3086,190C3017.1,190,2949,190,2880,190C2811.4,190,2743,190,2674,190C2605.7,190,2537,190,2469,190C2400,190,2331,190,2263,190C2194.3,190,2126,190,2057,190C1988.6,190,1920,190,1851,190C1782.9,190,1714,190,1646,190C1577.1,190,1509,190,1440,190C1371.4,190,1303,190,1234,190C1165.7,190,1097,190,1029,190C960,190,891,190,823,190C754.3,190,686,190,617,190C548.6,190,480,190,411,190C342.9,190,274,190,206,190C137.1,190,69,190,34,190L0,190Z"/><defs><linearGradient id="sw-gradient-1" x1="0" x2="0" y1="1" y2="0"><stop stop-color="rgba(243, 106, 62, 1)" offset="0%"/><stop stop-color="rgba(255, 179, 11, 1)" offset="100%"/></linearGradient></defs><path style="transform:translate(0, 50px); opacity:0.9" fill="url(#sw-gradient-1)" d="M0,19L34.3,44.3C68.6,70,137,120,206,133C274.3,146,343,120,411,91.8C480,63,549,32,617,34.8C685.7,38,754,76,823,91.8C891.4,108,960,101,1029,107.7C1097.1,114,1166,133,1234,139.3C1302.9,146,1371,139,1440,129.8C1508.6,120,1577,108,1646,110.8C1714.3,114,1783,133,1851,133C1920,133,1989,114,2057,101.3C2125.7,89,2194,82,2263,79.2C2331.4,76,2400,76,2469,63.3C2537.1,51,2606,25,2674,15.8C2742.9,6,2811,13,2880,31.7C2948.6,51,3017,82,3086,85.5C3154.3,89,3223,63,3291,66.5C3360,70,3429,101,3497,120.3C3565.7,139,3634,146,3703,145.7C3771.4,146,3840,139,3909,133C3977.1,127,4046,120,4114,101.3C4182.9,82,4251,51,4320,34.8C4388.6,19,4457,19,4526,19C4594.3,19,4663,19,4731,25.3C4800,32,4869,44,4903,50.7L4937.1,57L4937.1,190L4902.9,190C4868.6,190,4800,190,4731,190C4662.9,190,4594,190,4526,190C4457.1,190,4389,190,4320,190C4251.4,190,4183,190,4114,190C4045.7,190,3977,190,3909,190C3840,190,3771,190,3703,190C3634.3,190,3566,190,3497,190C3428.6,190,3360,190,3291,190C3222.9,190,3154,190,3086,190C3017.1,190,2949,190,2880,190C2811.4,190,2743,190,2674,190C2605.7,190,2537,190,2469,190C2400,190,2331,190,2263,190C2194.3,190,2126,190,2057,190C1988.6,190,1920,190,1851,190C1782.9,190,1714,190,1646,190C1577.1,190,1509,190,1440,190C1371.4,190,1303,190,1234,190C1165.7,190,1097,190,1029,190C960,190,891,190,823,190C754.3,190,686,190,617,190C548.6,190,480,190,411,190C342.9,190,274,190,206,190C137.1,190,69,190,34,190L0,190Z"/></svg>