<?xml version="1.0" standalone="no"?>
<svg xmlns:xlink="http://www.w3.org/1999/xlink" id="wave" style="transform:rotate(0deg); transition: 0.3s" viewBox="0 0 1440 220" version="1.1" xmlns="http://www.w3.org/2000/svg"><defs><linearGradient id="sw-gradient-0" x1="0" x2="0" y1="1" y2="0"><stop stop-color="rgba(243, 106, 62, 1)" offset="0%"/><stop stop-color="rgba(255, 179, 11, 1)" offset="100%"/></linearGradient></defs><path style="transform:translate(0, 0px); opacity:1" fill="url(#sw-gradient-0)" d="M0,22L48,47.7C96,73,192,125,288,146.7C384,169,480,161,576,135.7C672,110,768,66,864,47.7C960,29,1056,37,1152,58.7C1248,81,1344,117,1440,132C1536,147,1632,139,1728,135.7C1824,132,1920,132,2016,132C2112,132,2208,132,2304,124.7C2400,117,2496,103,2592,88C2688,73,2784,59,2880,44C2976,29,3072,15,3168,18.3C3264,22,3360,44,3456,73.3C3552,103,3648,139,3744,139.3C3840,139,3936,103,4032,91.7C4128,81,4224,95,4320,113.7C4416,132,4512,154,4608,143C4704,132,4800,88,4896,84.3C4992,81,5088,117,5184,143C5280,169,5376,183,5472,168.7C5568,154,5664,110,5760,77C5856,44,5952,22,6048,14.7C6144,7,6240,15,6336,29.3C6432,44,6528,66,6624,95.3C6720,125,6816,161,6864,179.7L6912,198L6912,220L6864,220C6816,220,6720,220,6624,220C6528,220,6432,220,6336,220C6240,220,6144,220,6048,220C5952,220,5856,220,5760,220C5664,220,5568,220,5472,220C5376,220,5280,220,5184,220C5088,220,4992,220,4896,220C4800,220,4704,220,4608,220C4512,220,4416,220,4320,220C4224,220,4128,220,4032,220C3936,220,3840,220,3744,220C3648,220,3552,220,3456,220C3360,220,3264,220,3168,220C3072,220,2976,220,2880,220C2784,220,2688,220,2592,220C2496,220,2400,220,2304,220C2208,220,2112,220,2016,220C1920,220,1824,220,1728,220C1632,220,1536,220,1440,220C1344,220,1248,220,1152,220C1056,220,960,220,864,220C768,220,672,220,576,220C480,220,384,220,288,220C192,220,96,220,48,220L0,220Z"/><defs><linearGradient id="sw-gradient-1" x1="0" x2="0" y1="1" y2="0"><stop stop-color="rgba(243, 106, 62, 1)" offset="0%"/><stop stop-color="rgba(255, 179, 11, 1)" offset="100%"/></linearGradient></defs><path style="transform:translate(0, 50px); opacity:0.9" fill="url(#sw-gradient-1)" d="M0,88L48,99C96,110,192,132,288,135.7C384,139,480,125,576,132C672,139,768,169,864,165C960,161,1056,125,1152,99C1248,73,1344,59,1440,58.7C1536,59,1632,73,1728,69.7C1824,66,1920,44,2016,36.7C2112,29,2208,37,2304,33C2400,29,2496,15,2592,40.3C2688,66,2784,132,2880,165C2976,198,3072,198,3168,194.3C3264,191,3360,183,3456,150.3C3552,117,3648,59,3744,44C3840,29,3936,59,4032,80.7C4128,103,4224,117,4320,113.7C4416,110,4512,88,4608,80.7C4704,73,4800,81,4896,88C4992,95,5088,103,5184,91.7C5280,81,5376,51,5472,47.7C5568,44,5664,66,5760,66C5856,66,5952,44,6048,29.3C6144,15,6240,7,6336,22C6432,37,6528,73,6624,99C6720,125,6816,139,6864,146.7L6912,154L6912,220L6864,220C6816,220,6720,220,6624,220C6528,220,6432,220,6336,220C6240,220,6144,220,6048,220C5952,220,5856,220,5760,220C5664,220,5568,220,5472,220C5376,220,5280,220,5184,220C5088,220,4992,220,4896,220C4800,220,4704,220,4608,220C4512,220,4416,220,4320,220C4224,220,4128,220,4032,220C3936,220,3840,220,3744,220C3648,220,3552,220,3456,220C3360,220,3264,220,3168,220C3072,220,2976,220,2880,220C2784,220,2688,220,2592,220C2496,220,2400,220,2304,220C2208,220,2112,220,2016,220C1920,220,1824,220,1728,220C1632,220,1536,220,1440,220C1344,220,1248,220,1152,220C1056,220,960,220,864,220C768,220,672,220,576,220C480,220,384,220,288,220C192,220,96,220,48,220L0,220Z"/></svg>